HIERARCHY
ROOT Hips
{
	OFFSET 0.000000 0.000000 0.000000
	CHANNELS 6 Xposition Yposition Zposition Xrotation Yrotation Zrotation
	JOINT LeftUpLeg_virtual
	{
		OFFSET 0.000000 0.000000 0.000000
		CHANNELS 3 Xrotation Yrotation Zrotation
		JOINT LeftUpLeg
		{
			OFFSET 15.427100 -6.655098 0.678600
			CHANNELS 3 Xrotation Yrotation Zrotation
			JOINT LeftLeg
			{
				OFFSET 4.081073 -39.591068 13.024000
				CHANNELS 3 Xrotation Yrotation Zrotation
				JOINT LeftFoot
				{
					OFFSET -4.081074 -37.707932 -15.979700
					CHANNELS 3 Xrotation Yrotation Zrotation
					JOINT LeftToeBase
					{
						OFFSET 5.346399 -15.068900 20.645000
						CHANNELS 3 Xrotation Yrotation Zrotation
						JOINT LeftToe_End
						{
							OFFSET 2.754700 0.931300 11.300900
							CHANNELS 3 Xrotation Yrotation Zrotation
							End Site
							{
								OFFSET 0 0 0
							}
						}
					}
				}
			}
		}
	}
	JOINT RightUpLeg_virtual
	{
		OFFSET 0.000000 0.000000 0.000000
		CHANNELS 3 Xrotation Yrotation Zrotation
		JOINT RightUpLeg
		{
			OFFSET -15.569500 -6.655098 0.678600
			CHANNELS 3 Xrotation Yrotation Zrotation
			JOINT RightLeg
			{
				OFFSET -4.081825 -39.591045 13.023800
				CHANNELS 3 Xrotation Yrotation Zrotation
				JOINT RightFoot
				{
					OFFSET 4.081824 -37.707954 -15.979600
					CHANNELS 3 Xrotation Yrotation Zrotation
					JOINT RightToeBase
					{
						OFFSET -5.346400 -15.068900 20.645000
						CHANNELS 3 Xrotation Yrotation Zrotation
						JOINT RightToe_End
						{
							OFFSET -2.754700 0.931300 11.300900
							CHANNELS 3 Xrotation Yrotation Zrotation
							End Site
							{
								OFFSET 0 0 0
							}
						}
					}
				}
			}
		}
	}
	JOINT Spine_virtual
	{
		OFFSET 0.000000 0.000000 0.000000
		CHANNELS 3 Xrotation Yrotation Zrotation
		JOINT Spine
		{
			OFFSET -0.279200 12.230698 -2.892100
			CHANNELS 3 Xrotation Yrotation Zrotation
			JOINT Spine1
			{
				OFFSET -0.232667 10.192268 -1.242267
				CHANNELS 3 Xrotation Yrotation Zrotation
				JOINT Spine1_split
				{
					OFFSET -0.232667 10.192268 -1.242267
					CHANNELS 3 Xrotation Yrotation Zrotation
					JOINT Spine2
					{
						OFFSET -0.232667 10.192268 -1.242267
						CHANNELS 3 Xrotation Yrotation Zrotation
						JOINT Neck_virtual
						{
							OFFSET 0.000000 0.000000 0.000000
							CHANNELS 3 Xrotation Yrotation Zrotation
							JOINT Neck
							{
								OFFSET -0.418800 17.814194 8.416900
								CHANNELS 3 Xrotation Yrotation Zrotation
								JOINT Head
								{
									OFFSET 0.000000 7.031097 3.806800
									CHANNELS 3 Xrotation Yrotation Zrotation
									JOINT HeadTop_End
									{
										OFFSET 0.000000 24.646606 12.978600
										CHANNELS 3 Xrotation Yrotation Zrotation
										End Site
										{
											OFFSET 0 0 0
										}
									}
								}
							}
						}
						JOINT LeftShoulder_virtual
						{
							OFFSET 0.000000 0.000000 0.000000
							CHANNELS 3 Xrotation Yrotation Zrotation
							JOINT LeftShoulder
							{
								OFFSET 8.476499 7.247704 -3.868750
								CHANNELS 3 Xrotation Yrotation Zrotation
								JOINT LeftShoulder_split
								{
									OFFSET 8.476499 7.247704 -3.868750
									CHANNELS 3 Xrotation Yrotation Zrotation
									JOINT LeftArm
									{
										OFFSET 9.308998 -2.777710 0.208600
										CHANNELS 3 Xrotation Yrotation Zrotation
										JOINT LeftForeArm
										{
											OFFSET 29.972298 0.000000 0.000000
											CHANNELS 3 Xrotation Yrotation Zrotation
											JOINT LeftHand
											{
												OFFSET 26.026505 0.000000 0.000000
												CHANNELS 3 Xrotation Yrotation Zrotation
												End Site
												{
													OFFSET 0 0 0
												}
											}
										}
									}
								}
							}
						}
						JOINT RightShoulder_virtual
						{
							OFFSET 0.000000 0.000000 0.000000
							CHANNELS 3 Xrotation Yrotation Zrotation
							JOINT RightShoulder
							{
								OFFSET -7.570500 7.247704 -3.868750
								CHANNELS 3 Xrotation Yrotation Zrotation
								JOINT RightShoulder_split
								{
									OFFSET -7.570500 7.247704 -3.868750
									CHANNELS 3 Xrotation Yrotation Zrotation
									JOINT RightArm
									{
										OFFSET -9.308998 -2.777710 0.208500
										CHANNELS 3 Xrotation Yrotation Zrotation
										JOINT RightForeArm
										{
											OFFSET -29.972300 0.000000 0.000000
											CHANNELS 3 Xrotation Yrotation Zrotation
											JOINT RightHand
											{
												OFFSET -26.026505 0.000000 0.000000
												CHANNELS 3 Xrotation Yrotation Zrotation
												End Site
												{
													OFFSET 0 0 0
												}
											}
										}
									}
								}
							}
						}
					}
				}
			}
		}
	}
}
MOTION
Frames: 4
Frame Time: 0.03333333
-0.364259 88.653946 -0.280167 0.000000 0.000000 0.000000 -50.639224 -83.969280 -48.817466 -15.351706 16.289666 11.945057 30.452771 0.097333 2.439462 -9.406438 2.252526 -9.428595 -4.205815 -0.377183 -0.402476 0.000000 0.000000 0.000000 -36.376976 -83.336381 -35.169238 -12.048756 -22.657962 -11.607256 28.223330 6.947131 -10.315538 -8.824321 -2.841673 12.258178 1.893471 0.723758 1.375535 0.000000 0.000000 0.000000 -45.354946 -82.727053 -44.332709 3.401391 0.824408 1.186614 3.671096 0.210023 1.831507 0.637634 5.632000 -0.536065 0.000000 0.000000 0.000000 3.891215 -0.212261 1.513268 -6.298816 6.528849 -3.342922 5.524771 37.005589 -3.615261 0.000000 0.000000 0.000000 5.251928 0.341845 1.607353 0.739652 4.960084 0.059166 -1.071502 -0.204364 -0.501125 9.799661 -79.505717 -53.274000 -1.970984 -24.117015 -0.221283 0.000000 0.000000 0.000000 6.289903 0.795163 1.140576 1.304915 2.968120 7.389945 2.973961 4.175843 -0.607613 13.541411 27.518484 59.693736 1.297910 31.097336 0.053527 0.000000 0.000000 0.000000 
-0.363263 88.619385 -0.174519 0.000000 0.000000 0.000000 -51.048895 -83.891252 -49.191046 -15.249185 16.270578 12.070930 30.656030 -0.122280 2.488630 -9.498775 2.270059 -9.041946 -3.815371 -0.335650 -0.597467 0.000000 0.000000 0.000000 -36.561511 -83.167839 -35.316825 -12.075820 -22.582216 -11.518650 28.335820 6.900547 -10.381327 -8.628000 -3.001912 12.271438 1.774021 0.689943 1.420454 0.000000 0.000000 0.000000 -45.608848 -82.646751 -44.627432 3.467810 0.739021 1.275231 3.628751 0.202526 1.834566 0.791422 4.309243 -0.242474 0.000000 0.000000 0.000000 3.852535 -0.173441 1.532648 -6.443358 6.480603 -3.391629 5.505048 36.851131 -3.712346 0.000000 0.000000 0.000000 5.250215 0.328612 1.656741 0.697646 4.803259 -0.028756 -0.972022 -0.123390 -0.226723 12.463747 -79.550038 -50.855027 -2.239012 -24.432710 -0.554277 0.000000 0.000000 0.000000 6.311410 0.832898 1.217783 1.398669 2.763771 7.255829 3.006939 4.160502 -0.777242 13.720125 27.515678 59.509007 1.319974 31.848045 -0.121699 0.000000 0.000000 0.000000 
-0.308157 88.556946 -0.174095 0.000000 0.000000 0.000000 -50.994298 -83.766492 -49.159125 -15.364079 16.313079 12.261054 30.992161 -0.491814 2.652867 -9.697261 2.150219 -8.933348 -3.461172 -0.277169 -0.756454 0.000000 0.000000 0.000000 -37.041366 -82.863281 -35.763902 -11.929153 -22.514802 -11.303274 28.606733 6.951720 -10.547602 -8.668158 -3.170500 12.534202 1.659654 0.634685 1.377413 0.000000 0.000000 0.000000 -45.917521 -82.572281 -44.982355 3.614462 0.509530 1.464318 3.604352 0.120196 1.834025 0.792556 3.179937 -0.101578 0.000000 0.000000 0.000000 3.914121 -0.214452 1.604018 -6.709927 6.544295 -3.561173 5.459267 36.973781 -3.938005 0.000000 0.000000 0.000000 5.356639 0.236105 1.725950 0.693161 4.724785 -0.091652 -0.840875 0.367034 -0.301357 17.091104 -79.532171 -46.697816 -2.354284 -25.061386 -0.854788 0.000000 0.000000 0.000000 6.302977 0.758384 1.325124 1.508904 2.537306 7.010055 3.098422 4.402649 -0.751643 13.879342 27.379010 59.589938 1.318939 33.326289 -0.272060 0.000000 0.000000 0.000000 
-0.206815 88.455299 -0.250412 0.000000 0.000000 0.000000 -50.532673 -83.631022 -48.740616 -15.614417 16.535668 12.398638 31.388582 -0.922608 2.921306 -10.019852 1.920845 -9.079399 -3.506811 -0.246281 -0.676692 0.000000 0.000000 0.000000 -37.714747 -82.580949 -36.403006 -11.761778 -22.373041 -11.077325 29.027385 7.117305 -10.779395 -8.906356 -3.259696 13.023650 1.648979 0.579480 1.259499 0.000000 0.000000 0.000000 -46.392578 -82.561510 -45.464925 3.788245 0.202601 1.657792 3.594660 0.035351 1.825532 0.821687 2.424516 -0.166395 0.000000 0.000000 0.000000 4.049080 -0.287205 1.695004 -6.992133 6.672694 -3.842179 5.347231 37.283127 -4.241390 0.000000 0.000000 0.000000 5.508984 0.131562 1.805128 0.711746 4.735188 -0.116361 -0.787086 0.967126 -0.577782 22.402213 -79.478417 -41.895704 -2.260313 -25.576939 -1.047659 0.000000 0.000000 0.000000 6.270715 0.639478 1.430743 1.596468 2.390184 6.758088 3.300453 4.839219 -0.661534 13.868686 27.117419 59.915943 1.280241 34.935236 -0.375452 0.000000 0.000000 0.000000 
